<?xml version="1.0" encoding="utf-8"?>
<!-- Generator: Adobe Illustrator 28.1.0, SVG Export Plug-In . SVG Version: 6.00 Build 0)  -->
<svg version="1.1" id="Layer_1" xmlns="http://www.w3.org/2000/svg" xmlns:xlink="http://www.w3.org/1999/xlink" x="0px" y="0px"
	 viewBox="0 0 512 512" style="enable-background:new 0 0 512 512;" xml:space="preserve">
<style type="text/css">
	.st0{fill:#0E1C36;}
</style>
<link  id="dark-mode" rel="stylesheet" type="text/css"></link>
<path class="st0" d="M494.1,154v3.4c0,2.8-1.4,5.3-3.6,6.9L262.1,323.2c-2.9,2-6.7,2-9.6,0l-230.9-159c-2.3-1.6-3.7-4.2-3.7-6.9V154
	c0-4.7,3.8-8.4,8.4-8.4h459.3C490.3,145.5,494.1,149.3,494.1,154z"/>
<path class="st0" d="M494.1,185.5v248.9c0,2.7-2.2,4.9-4.9,4.9H22.8c-2.7,0-4.9-2.2-4.9-4.9V185.5c0-4,4.5-6.3,7.7-4L253.2,339
	c1.7,1.2,3.9,1.2,5.6,0l227.6-157.5C489.6,179.2,494.1,181.5,494.1,185.5z"/>
</svg>
