<?xml version="1.0" encoding="UTF-8"?>
<svg id="Layer_1" data-name="Layer 1" xmlns="http://www.w3.org/2000/svg" viewBox="0 0 448 448">
  <defs>
    <style>
      .cls-1 {
        fill: #0e1c36;
        stroke-width: 0px;
      }
    </style>
  </defs>
  <path class="cls-1" d="M224,0C100.3,0,0,102.9,0,229.7c0,101.5,64.2,187.5,153.2,217.9,1.25.27,2.52.41,3.8.4,8.3,0,11.5-6.1,11.5-11.4s-.2-19.9-.3-39.1c-7.41,1.74-14.99,2.64-22.6,2.7-43.1,0-52.9-33.5-52.9-33.5-10.2-26.5-24.9-33.6-24.9-33.6-19.5-13.7-.1-14.1,1.4-14.1h.1c22.5,2,34.3,23.8,34.3,23.8,11.2,19.6,26.2,25.1,39.6,25.1,8.86-.18,17.58-2.22,25.6-6,2-14.8,7.8-24.9,14.2-30.7-49.7-5.8-102-25.5-102-113.5,0-25.1,8.7-45.6,23-61.6-2.3-5.8-10-29.2,2.2-60.8,1.64-.39,3.32-.56,5-.5,8.1,0,26.4,3.1,56.6,24.1,36.7-10.27,75.5-10.27,112.2,0,30.2-21,48.5-24.1,56.6-24.1,1.68-.06,3.36.11,5,.5,12.2,31.6,4.5,55,2.2,60.8,14.3,16.1,23,36.6,23,61.6,0,88.2-52.4,107.6-102.3,113.3,8,7.1,15.2,21.1,15.2,42.5,0,30.7-.3,55.5-.3,63,0,5.4,3.1,11.5,11.4,11.5,1.34,0,2.68-.13,4-.4,89.1-30.4,153.2-116.5,153.2-217.9C448,102.9,347.7,0,224,0Z"/>
</svg>